# xmcd
#
# Track frame offsets: 
#        150
#        16822
#        38215
#        52376
#        66648
#        86266
#        102827
#        118871
#        139400
#        157821
#        174869
#        192191
#        213599
#        234087
#
# Disc length: 3422 seconds
#
# Revision: 0
# Processed by: cddbd v1.5.2PL0 Copyright (c) Steve Scherf et al.
# Submitted via: ExactAudioCopyFreeDBPlugin 1.0
#
DISCID=bd0d5c0e
DTITLE=Сергей Дроздов - Последний
DYEAR=2013
DGENRE=Blues
TTITLE0=Странная Любовь
TTITLE1=Алиса
TTITLE2=Знаю Я
TTITLE3=Как Жить
TTITLE4=Мой Способ Выжить
TTITLE5=Моя Душа
TTITLE6=Не Ходи На Свидание
TTITLE7=Никогда
TTITLE8=Пиши Звони
TTITLE9=Разлюби Его
TTITLE10=Если Встретятся Наши Глаза
TTITLE11=Буду Я С Тобой
TTITLE12=Дурацкая Судьба
TTITLE13=Я вернулся
EXTD=
EXTT0=
EXTT1=
EXTT2=
EXTT3=
EXTT4=
EXTT5=
EXTT6=
EXTT7=
EXTT8=
EXTT9=
EXTT10=
EXTT11=
EXTT12=
EXTT13=
PLAYORDER=
